<svg id="Layer_1" enable-background="new 0 0 512 512" height="512" viewBox="0 0 512 512" width="512" xmlns="http://www.w3.org/2000/svg"><g><g><g><path d="m512 256c0 56.499-18.305 108.722-49.303 151.065-12.115 16.549-401.278 16.549-413.393 0-30.999-42.343-49.304-94.566-49.304-151.065 0-141.38 114.62-256 256-256s256 114.62 256 256z" fill="#f7d854"/></g></g><path d="m462.697 407.065c30.85-42.141 49.122-94.071 49.295-150.259l-183.455-189.716-182.307 137.343 55.581 62.505-3.5 12.378s20.67 20.878 21.234 21.513l-5.545 77.171-164.69 29.06c.01.013.018.029.027.042 12.678 16.512 401.254 16.5 413.36-.037z" fill="#eac31c"/><g><g><path d="m199.97 260.488h112.06v118.84h-112.06z" fill="#af4b00"/><path d="m256 260.491h56.03v118.84h-56.03z" fill="#7f3706"/><path d="m385.54 332.29h-73.51v.002h-112.06v-.002h-73.5c-41.82 0-75.88 33.26-77.16 74.77 46.57 63.62 121.81 104.94 206.69 104.94s160.12-41.32 206.69-104.94c-1.27-41.52-35.32-74.77-77.15-74.77z" fill="#d36c18"/><path d="m462.69 407.06c-46.57 63.62-121.81 104.94-206.69 104.94v-179.71h129.54c41.83 0 75.88 33.25 77.15 74.77z" fill="#af4b00"/><path d="m356.627 132.984c-4.251-64.537-56.454-88.387-100.627-88.387s-96.376 23.851-100.627 88.387c-11.423 2.209-19.537 17.192-18.26 29.305l1.958 27.568c1.34 12.721 12.522 22.008 24.845 20.626l2.125-.23c25.243 67.783 64.83 74.85 89.958 78.818 25.128-3.968 64.715-11.035 89.958-78.818l2.125.23c12.323 1.382 23.505-7.905 24.845-20.626l1.958-27.568c1.279-12.113-6.835-27.096-18.258-29.305z" fill="#d36c18"/><path d="m374.886 162.29-1.958 27.568c-1.34 12.721-12.522 22.008-24.845 20.626l-2.125-.23c-8.627 23.139-18.919 39.21-29.735 50.486-20.856 21.757-43.67 25.714-60.223 28.332v-244.475c44.173 0 96.376 23.851 100.627 88.387 11.423 2.209 19.537 17.192 18.259 29.306z" fill="#af4b00"/><path d="m277.31 190.352c-12.286-10.446-30.333-10.446-42.619 0-13.702 11.649-30.91 18.374-48.88 19.1l-19.768.8 1.325 7.969c7.207 43.34 44.698 75.112 88.633 75.112 44.918-2.492 82.097-35.811 89.477-80.189l.481-2.891-19.768-.799c-17.971-.728-35.18-7.452-48.881-19.102z" fill="#efebdc"/><path d="m345.953 210.255-.473 2.891c-3.687 22.195-14.833 41.618-30.665 55.806s-36.351 23.142-58.815 24.378v-110.816c7.588 0 15.177 2.612 21.314 7.836 13.693 11.651 30.902 18.38 48.873 19.1z" fill="#d6cfbd"/><path d="m256 36.523s-57.031-2.577-83.871 46.771c0 0 33.44-14.032 47.11 0 3.264 3.35 7.193 6.021 11.251 8.142 15.924 8.324 35.094 8.324 51.019 0 4.058-2.121 7.988-4.792 11.252-8.142 13.67-14.032 47.11 0 47.11 0-26.84-49.348-83.871-46.771-83.871-46.771z" fill="#584b66"/><path d="m339.856 83.288c-.68-.278-33.569-13.883-47.092.01-3.267 3.35-7.194 6.019-11.255 8.142-7.967 4.154-16.738 6.236-25.509 6.236v-61.15s57.017-2.576 83.856 46.762z" fill="#3d3449"/><path d="m420.87 451.85c-44.54 37.53-102.07 60.15-164.87 60.15s-120.33-22.62-164.87-60.15c33.25-44.44 39.74-119.56 39.74-119.56h36.9v43.8c0 37.44 30.35 67.8 67.8 67.8h40.86c37.45 0 67.8-30.36 67.8-67.8v-43.8h36.9s6.49 75.12 39.74 119.56z" fill="#efebdc"/></g><path d="m420.87 451.85c-44.54 37.53-102.07 60.15-164.87 60.15v-68.11h20.43c37.45 0 67.8-30.36 67.8-67.8v-43.8h36.9s6.49 75.12 39.74 119.56z" fill="#d6cfbd"/></g></g></svg>