<svg width="1198" height="760" viewBox="0 0 1198 760" fill="none" xmlns="http://www.w3.org/2000/svg">
<rect width="1198" height="760" fill="url(#paint0_linear)"/>
<rect x="1104.56" y="564" width="44.7394" height="44.7394" transform="rotate(38.6055 1104.56 564)" fill="#E7E7E7"/>
<rect x="1014.05" y="139" width="28.9317" height="28.9317" transform="rotate(38.6055 1014.05 139)" fill="#E7E7E7"/>
<rect x="768.821" y="239" width="18.9451" height="18.9451" transform="rotate(38.6055 768.821 239)" fill="#E7E7E7"/>
<rect x="835.505" y="465" width="29.658" height="29.658" transform="rotate(38.6055 835.505 465)" fill="#E7E7E7"/>
<rect x="1026.9" y="331" width="15.8593" height="15.8593" transform="rotate(38.6055 1026.9 331)" fill="#E7E7E7"/>
<rect x="178.456" y="170" width="16.7583" height="16.7583" transform="rotate(38.6055 178.456 170)" fill="white"/>
<rect x="268.963" y="381" width="28.7891" height="28.7891" transform="rotate(38.6055 268.963 381)" fill="white"/>
<rect x="76.052" y="98" width="28.9317" height="28.9317" transform="rotate(38.6055 76.052 98)" fill="white"/>
<rect x="519.348" y="209" width="41.3659" height="43.8301" transform="rotate(38.6055 519.348 209)" fill="white"/>
<rect x="124.489" y="622" width="24.941" height="26.4268" transform="rotate(38.6055 124.489 622)" fill="white"/>
<rect x="571.665" y="587" width="14.6191" height="15.49" transform="rotate(38.6055 571.665 587)" fill="#E7E7E7"/>
<rect x="578.91" y="643" width="27.0912" height="28.705" transform="rotate(38.6055 578.91 643)" fill="#E7E7E7"/>
<rect x="564.325" y="372" width="18.6431" height="19.7537" transform="rotate(38.6055 564.325 372)" fill="white"/>
<rect x="1052.13" y="664" width="21.0466" height="21.0466" transform="rotate(38.6055 1052.13 664)" fill="#E7E7E7"/>
<defs>
<linearGradient id="paint0_linear" x1="178" y1="172.727" x2="976.626" y2="835.514" gradientUnits="userSpaceOnUse">
<stop offset="0.000889629" stop-color="#E7E7E7"/>
<stop offset="0.920154" stop-color="white"/>
</linearGradient>
</defs>
</svg>
