<svg width="1198" height="714" viewBox="0 0 1198 714" fill="none" xmlns="http://www.w3.org/2000/svg">
<rect x="1101.56" y="522" width="44.7394" height="44.7394" transform="rotate(38.6055 1101.56 522)" fill="#E7E7E7"/>
<rect x="1011.05" y="97" width="28.9317" height="28.9317" transform="rotate(38.6055 1011.05 97)" fill="#E7E7E7"/>
<rect x="765.821" y="197" width="18.9451" height="18.9451" transform="rotate(38.6055 765.821 197)" fill="#E7E7E7"/>
<rect x="832.505" y="423" width="29.658" height="29.658" transform="rotate(38.6055 832.505 423)" fill="#E7E7E7"/>
<rect x="1023.9" y="289" width="15.8593" height="15.8593" transform="rotate(38.6055 1023.9 289)" fill="#E7E7E7"/>
<rect x="175.456" y="128" width="16.7583" height="16.7583" transform="rotate(38.6055 175.456 128)" fill="white"/>
<rect x="265.963" y="339" width="28.7891" height="28.7891" transform="rotate(38.6055 265.963 339)" fill="white"/>
<rect x="73.052" y="56" width="28.9317" height="28.9317" transform="rotate(38.6055 73.052 56)" fill="white"/>
<rect x="516.348" y="167" width="41.3659" height="43.8301" transform="rotate(38.6055 516.348 167)" fill="white"/>
<rect x="121.489" y="580" width="24.941" height="26.4268" transform="rotate(38.6055 121.489 580)" fill="white"/>
<rect x="568.665" y="545" width="14.6191" height="15.49" transform="rotate(38.6055 568.665 545)" fill="#E7E7E7"/>
<rect x="575.91" y="601" width="27.0912" height="28.705" transform="rotate(38.6055 575.91 601)" fill="#E7E7E7"/>
<rect x="561.325" y="330" width="18.6431" height="19.7537" transform="rotate(38.6055 561.325 330)" fill="white"/>
<rect x="1049.13" y="622" width="21.0466" height="21.0466" transform="rotate(38.6055 1049.13 622)" fill="#E7E7E7"/>
</svg>
