<svg width="600" height="468" viewBox="0 0 600 468" fill="none" xmlns="http://www.w3.org/2000/svg">
<path d="M565.324 253.524C565.324 325.507 523.199 389.189 458.622 427.954C417.218 452.814 366.578 467.431 311.901 467.431C239.06 467.431 183.497 439.852 141.7 397.604C103.176 358.674 76.351 307.277 58.4773 253.524C-21.3154 13.5287 111.979 -51.9452 311.901 39.617C439.192 97.9216 565.324 135.39 565.324 253.524Z" fill="#C2E3FF"/>
<g clip-path="url(#clip0)">
<path d="M468.686 115.119H321.558V112.086H254.845V115.119H107.112C104.472 115.119 101.941 116.168 100.074 118.035C98.2075 119.902 97.1589 122.434 97.1589 125.074V326.58C97.1589 329.221 98.2075 331.753 100.074 333.62C101.941 335.487 104.472 336.535 107.112 336.535H468.686C471.325 336.535 473.857 335.487 475.723 333.62C477.59 331.753 478.638 329.221 478.638 326.58V125.073C478.638 122.433 477.589 119.901 475.723 118.034C473.856 116.168 471.325 115.119 468.686 115.119Z" fill="#393939"/>
<path d="M465.295 132.71H110.503V332.895H465.295V132.71Z" fill="#E6E6E6"/>
<path d="M450.37 143.297H125.549V316.331H450.37V143.297Z" fill="white"/>
<path d="M287.596 127.251C289.605 127.251 291.235 125.622 291.235 123.612C291.235 121.601 289.605 119.972 287.596 119.972C285.586 119.972 283.957 121.601 283.957 123.612C283.957 125.622 285.586 127.251 287.596 127.251Z" fill="#008AFF"/>
<path d="M488.599 329.255H453.974V326.76C453.974 326.628 453.922 326.502 453.829 326.41C453.736 326.317 453.61 326.265 453.479 326.265H441.608C441.476 326.265 441.351 326.317 441.258 326.41C441.165 326.502 441.113 326.628 441.113 326.76V326.76V329.255H433.693V326.76C433.693 326.628 433.641 326.502 433.548 326.41C433.456 326.317 433.33 326.265 433.199 326.265H421.327C421.196 326.265 421.07 326.317 420.977 326.41C420.884 326.502 420.832 326.628 420.832 326.76V326.76V329.255H413.413V326.76C413.413 326.628 413.361 326.502 413.268 326.41C413.175 326.317 413.049 326.265 412.918 326.265H401.046C400.915 326.265 400.789 326.317 400.696 326.41C400.604 326.502 400.551 326.628 400.551 326.76V326.76V329.255H393.132V326.76C393.132 326.628 393.08 326.502 392.987 326.41C392.894 326.317 392.768 326.265 392.637 326.265H380.766C380.635 326.265 380.509 326.317 380.416 326.41C380.323 326.502 380.271 326.628 380.271 326.76V326.76V329.255H372.851V326.76C372.851 326.628 372.799 326.502 372.706 326.41C372.614 326.317 372.488 326.265 372.357 326.265H360.485C360.354 326.265 360.228 326.317 360.136 326.41C360.043 326.502 359.991 326.628 359.991 326.76V326.76V329.255H352.571V326.76C352.571 326.628 352.519 326.502 352.426 326.41C352.333 326.317 352.207 326.265 352.076 326.265H340.207C340.076 326.265 339.95 326.317 339.857 326.41C339.764 326.502 339.712 326.628 339.712 326.76V326.76V329.255H332.29V326.76C332.29 326.628 332.238 326.502 332.145 326.41C332.052 326.317 331.926 326.265 331.795 326.265H238.801C238.67 326.265 238.544 326.317 238.452 326.41C238.359 326.502 238.307 326.628 238.307 326.76V326.76V329.255H230.887V326.76C230.887 326.628 230.835 326.502 230.742 326.41C230.649 326.317 230.524 326.265 230.392 326.265H218.521C218.389 326.265 218.264 326.317 218.171 326.41C218.078 326.502 218.026 326.628 218.026 326.76V326.76V329.255H210.606V326.76C210.606 326.628 210.554 326.502 210.462 326.41C210.369 326.317 210.243 326.265 210.112 326.265H198.241C198.109 326.265 197.984 326.317 197.891 326.41C197.798 326.502 197.746 326.628 197.746 326.76V326.76V329.255H190.326V326.76C190.326 326.628 190.274 326.502 190.181 326.41C190.088 326.317 189.962 326.265 189.831 326.265H177.96C177.829 326.265 177.703 326.317 177.61 326.41C177.517 326.502 177.465 326.628 177.465 326.76V326.76V329.255H170.047V326.76C170.047 326.628 169.995 326.502 169.902 326.41C169.809 326.317 169.683 326.265 169.552 326.265H157.679C157.548 326.265 157.422 326.317 157.329 326.41C157.237 326.502 157.184 326.628 157.184 326.76V326.76V329.255H149.765V326.76C149.765 326.628 149.713 326.502 149.62 326.41C149.527 326.317 149.401 326.265 149.27 326.265H137.399C137.267 326.265 137.141 326.317 137.049 326.41C136.956 326.502 136.904 326.628 136.904 326.76V326.76V329.255H129.484V326.76C129.484 326.628 129.432 326.502 129.339 326.41C129.247 326.317 129.121 326.265 128.99 326.265H117.116C116.984 326.265 116.859 326.317 116.766 326.41C116.673 326.502 116.621 326.628 116.621 326.76V326.76V329.255H93.8694C90.7209 329.255 87.7013 330.506 85.4749 332.733C83.2486 334.96 81.9978 337.98 81.9978 341.129V346.498C81.9978 349.648 83.2486 352.668 85.4749 354.895C87.7013 357.122 90.7209 358.373 93.8694 358.373H488.599C491.748 358.373 494.767 357.122 496.994 354.895C499.22 352.668 500.471 349.648 500.471 346.499V341.13C500.471 337.981 499.22 334.961 496.994 332.734C494.767 330.507 491.748 329.256 488.599 329.256V329.255Z" fill="#393939"/>
<path d="M359.779 155.433H216.141V306.457H359.779V155.433Z" fill="#E6E6E6"/>
<path d="M600 357.869H-0.000244141V359H600V357.869Z" fill="#E6E6E6"/>
<path d="M541.728 318.351C549.858 327.077 550.278 339.902 550.278 339.902C550.278 339.902 537.518 338.579 529.388 329.854C521.258 321.128 520.838 308.303 520.838 308.303C520.838 308.303 533.599 309.626 541.728 318.351Z" fill="#008AFF"/>
<path d="M567.322 331.971C558.598 340.102 545.776 340.522 545.776 340.522C545.776 340.522 547.098 327.759 555.822 319.627C564.545 311.496 577.367 311.076 577.367 311.076C577.367 311.076 576.046 323.839 567.322 331.971Z" fill="#93CAF9"/>
<path d="M565.153 357.868H533.067C532.452 357.869 531.848 357.696 531.326 357.369C530.804 357.042 530.385 356.575 530.116 356.022L523.13 341.658C522.886 341.158 522.774 340.604 522.803 340.048C522.832 339.492 523.003 338.953 523.298 338.481C523.593 338.009 524.003 337.62 524.49 337.35C524.977 337.081 525.525 336.939 526.082 336.94H572.14C572.696 336.939 573.244 337.081 573.731 337.35C574.218 337.62 574.628 338.009 574.923 338.481C575.219 338.953 575.389 339.492 575.418 340.048C575.447 340.604 575.335 341.158 575.091 341.658L568.105 356.022C567.836 356.576 567.417 357.043 566.895 357.37C566.373 357.696 565.77 357.869 565.154 357.869L565.153 357.868Z" fill="#FF8A00"/>
<path d="M34.4711 318.351C42.6008 327.077 43.021 339.902 43.021 339.902C43.021 339.902 30.2604 338.579 22.1307 329.854C14.001 321.128 13.5808 308.303 13.5808 308.303C13.5808 308.303 26.3414 309.626 34.4711 318.351Z" fill="#BCE0FF"/>
<path d="M52.8064 357.868H20.7203C20.1046 357.869 19.5013 357.696 18.9794 357.369C18.4575 357.042 18.038 356.575 17.7689 356.022L10.7832 341.658C10.5393 341.158 10.4267 340.604 10.456 340.048C10.4853 339.492 10.6556 338.953 10.9508 338.481C11.246 338.009 11.6564 337.62 12.1434 337.35C12.6304 337.081 13.178 336.939 13.7346 336.94H59.7926C60.3492 336.939 60.8968 337.081 61.3838 337.35C61.8708 337.62 62.2813 338.009 62.5765 338.481C62.8717 338.953 63.0419 339.492 63.0713 340.048C63.1006 340.604 62.9879 341.158 62.744 341.658L55.7583 356.022C55.4893 356.576 55.0698 357.043 54.5478 357.37C54.0259 357.696 53.4226 357.869 52.807 357.869L52.8064 357.868Z" fill="#FFB864"/>
<path d="M305.29 198.185C315.833 198.185 324.38 189.636 324.38 179.091C324.38 168.546 315.833 159.997 305.29 159.997C294.747 159.997 286.201 168.546 286.201 179.091C286.201 189.636 294.747 198.185 305.29 198.185Z" fill="#A0616A"/>
<path d="M261.368 306.768L273.696 229.142C274.351 225.015 275.878 221.075 278.174 217.584C280.471 214.092 283.484 211.131 287.014 208.895C290.544 206.659 294.509 205.201 298.646 204.617C302.783 204.033 306.997 204.338 311.007 205.51V205.51C318.019 207.538 324.023 212.108 327.846 218.327C331.669 224.547 333.037 231.968 331.683 239.142L318.789 308.465L261.368 306.768Z" fill="#FF3D00"/>
<path d="M310.561 320.657C311.515 320.027 312.318 319.196 312.916 318.222C313.513 317.248 313.89 316.154 314.02 315.019C314.149 313.883 314.028 312.733 313.665 311.65C313.302 310.566 312.706 309.575 311.918 308.747L324.662 284.063L310.311 285.595L300.409 308.801C299.111 310.217 298.377 312.06 298.344 313.981C298.312 315.902 298.984 317.768 300.233 319.228C301.482 320.687 303.223 321.638 305.126 321.902C307.028 322.165 308.962 321.723 310.561 320.658L310.561 320.657Z" fill="#A0616A"/>
<path d="M313.29 304.393C312.585 304.294 311.927 303.982 311.404 303.498L306.528 298.992C306.002 298.503 305.638 297.864 305.486 297.161C305.335 296.458 305.402 295.726 305.68 295.063L315.425 271.96L314.042 226.311C314.446 223.349 316.01 220.669 318.389 218.861C320.768 217.052 323.768 216.263 326.729 216.667C329.69 217.071 332.369 218.635 334.177 221.015C335.985 223.395 336.774 226.396 336.37 229.357V229.357L338.734 258.053C339.452 266.763 336.984 275.436 331.787 282.461L316.59 303.01C316.298 303.405 315.926 303.734 315.498 303.976C315.07 304.217 314.596 304.366 314.107 304.412C313.835 304.438 313.561 304.432 313.29 304.393V304.393Z" fill="#FF3D00"/>
<path d="M195.358 168.688C195.566 169.812 196.018 170.876 196.682 171.806C197.346 172.737 198.205 173.51 199.2 174.072C200.195 174.634 201.301 174.971 202.44 175.059C203.58 175.147 204.724 174.985 205.794 174.582L223.551 195.944L227.735 182.128L210.232 163.96C209.433 162.214 208.023 160.82 206.268 160.042C204.512 159.264 202.532 159.155 200.702 159.737C198.872 160.319 197.319 161.55 196.334 163.199C195.35 164.848 195.003 166.801 195.359 168.688H195.358Z" fill="#A0616A"/>
<path d="M209.268 177.542C209.635 176.932 210.178 176.448 210.827 176.154L216.878 173.421C217.534 173.126 218.264 173.04 218.97 173.175C219.676 173.309 220.324 173.657 220.826 174.171L238.297 192.154L280.864 208.679C282.137 209.435 283.249 210.434 284.135 211.619C285.022 212.804 285.667 214.153 286.033 215.588C286.399 217.022 286.478 218.515 286.267 219.981C286.055 221.446 285.558 222.855 284.801 224.128C284.045 225.401 283.046 226.513 281.86 227.399C280.675 228.285 279.326 228.929 277.891 229.294C276.457 229.659 274.964 229.737 273.499 229.525C272.034 229.313 270.625 228.814 269.353 228.057L242.013 219.045C233.714 216.311 226.691 210.655 222.25 203.13L209.257 181.121C209.007 180.698 208.849 180.227 208.794 179.739C208.738 179.25 208.786 178.756 208.934 178.287C209.016 178.027 209.129 177.777 209.27 177.543L209.268 177.542Z" fill="#FF3D00"/>
<path opacity="0.1" d="M320.775 245.3L319.998 270.177L305.68 295.065L317.635 267.332L320.775 245.3Z" fill="black"/>
<path d="M292.363 169.521C294.332 171.852 297.664 172.509 300.738 172.779C306.98 173.326 316.058 172.439 322.159 171.029C322.594 175.25 321.407 179.802 323.892 183.274C325.058 179.07 325.735 174.746 325.912 170.387C325.987 168.521 325.958 166.584 325.198 164.868C324.439 163.152 322.782 161.695 320.875 161.68C322.292 160.605 323.952 159.895 325.708 159.613L319.669 156.577L321.22 154.984L310.285 154.315L313.452 152.303C308.685 151.648 303.863 151.497 299.065 151.85C296.837 152.014 294.507 152.328 292.702 153.62C290.897 154.911 289.853 157.477 290.974 159.373C289.571 159.604 288.25 160.189 287.136 161.073C286.022 161.957 285.152 163.111 284.609 164.425C283.804 166.466 283.878 168.733 284.126 170.908C284.538 174.386 285.346 177.806 286.535 181.1" fill="#2F2E41"/>
<path d="M373.971 121.688L200.023 161.856C199.168 162.052 198.271 161.901 197.528 161.437C196.785 160.972 196.256 160.232 196.058 159.378L186.096 116.219C185.9 115.364 186.05 114.467 186.515 113.724C186.979 112.98 187.72 112.451 188.573 112.253L362.521 72.085C363.376 71.8888 364.273 72.0395 365.016 72.504C365.759 72.9686 366.288 73.7091 366.486 74.563L376.448 117.722C376.644 118.576 376.493 119.474 376.029 120.217C375.565 120.961 374.824 121.489 373.971 121.688Z" fill="white"/>
<path d="M373.971 121.688L200.023 161.856C199.168 162.052 198.271 161.901 197.528 161.437C196.785 160.972 196.256 160.232 196.058 159.378L186.096 116.219C185.9 115.364 186.05 114.467 186.515 113.724C186.979 112.98 187.72 112.451 188.573 112.253L362.521 72.085C363.376 71.8888 364.273 72.0395 365.016 72.504C365.759 72.9686 366.288 73.7091 366.486 74.563L376.448 117.722C376.644 118.576 376.493 119.474 376.029 120.217C375.565 120.961 374.824 121.489 373.971 121.688ZM188.871 113.542C188.359 113.661 187.914 113.978 187.636 114.425C187.357 114.871 187.267 115.409 187.384 115.922L197.346 159.081C197.465 159.593 197.782 160.038 198.228 160.316C198.674 160.595 199.213 160.686 199.725 160.568L373.673 120.4C374.186 120.281 374.63 119.963 374.909 119.517C375.187 119.071 375.278 118.533 375.16 118.02L365.198 74.8605C365.079 74.348 364.762 73.9035 364.316 73.6247C363.87 73.3459 363.331 73.2555 362.819 73.3735L188.871 113.542Z" fill="#E6E6E6"/>
<path d="M249.229 113.408C248.942 113.474 248.67 113.596 248.43 113.766C248.19 113.937 247.985 114.154 247.829 114.403C247.672 114.653 247.566 114.931 247.517 115.222C247.468 115.513 247.476 115.811 247.542 116.098C247.608 116.385 247.73 116.657 247.9 116.897C248.071 117.138 248.288 117.342 248.537 117.499C248.787 117.655 249.065 117.761 249.356 117.81C249.647 117.859 249.944 117.851 250.232 117.785L250.239 117.783L353.338 93.9756C353.917 93.8409 354.419 93.4818 354.734 92.9771C355.048 92.4725 355.15 91.8635 355.016 91.2839C354.883 90.7044 354.524 90.2016 354.02 89.886C353.516 89.5704 352.908 89.4678 352.328 89.6007L249.229 113.408Z" fill="#E6E6E6"/>
<path d="M252.259 126.534C251.971 126.599 251.7 126.721 251.459 126.892C251.219 127.063 251.015 127.279 250.858 127.529C250.701 127.779 250.595 128.057 250.546 128.348C250.497 128.638 250.505 128.936 250.571 129.223C250.637 129.511 250.759 129.782 250.93 130.023C251.101 130.263 251.317 130.467 251.567 130.624C251.817 130.781 252.095 130.887 252.385 130.936C252.676 130.985 252.974 130.976 253.261 130.91L253.269 130.909L297.632 120.664C298.212 120.531 298.716 120.173 299.032 119.669C299.348 119.164 299.451 118.555 299.318 117.975C299.185 117.394 298.827 116.891 298.323 116.574C297.819 116.258 297.21 116.155 296.63 116.287L296.622 116.289L252.259 126.534Z" fill="#E6E6E6"/>
<path d="M221.045 142.499C228.482 142.499 234.511 136.468 234.511 129.029C234.511 121.589 228.482 115.559 221.045 115.559C213.607 115.559 207.578 121.589 207.578 129.029C207.578 136.468 213.607 142.499 221.045 142.499Z" fill="#008AFF"/>
<path d="M220.666 136.799C220.225 136.901 219.763 136.858 219.349 136.675L219.323 136.663L213.905 134.203C213.653 134.089 213.426 133.926 213.238 133.724C213.049 133.523 212.902 133.286 212.805 133.027C212.707 132.768 212.662 132.493 212.672 132.217C212.681 131.941 212.745 131.669 212.859 131.418C212.973 131.166 213.136 130.94 213.338 130.751C213.54 130.563 213.777 130.416 214.036 130.319C214.295 130.222 214.57 130.178 214.846 130.187C215.122 130.197 215.393 130.261 215.645 130.376L219.156 131.975L224.082 121.148C224.312 120.642 224.735 120.247 225.256 120.052C225.778 119.857 226.355 119.876 226.862 120.107V120.107L226.833 120.178L226.864 120.107C227.37 120.338 227.764 120.761 227.959 121.282C228.155 121.804 228.135 122.381 227.905 122.888L222.111 135.624C221.977 135.917 221.777 136.176 221.527 136.379C221.276 136.583 220.982 136.726 220.668 136.798L220.666 136.799Z" fill="white"/>
</g>
<defs>
<clipPath id="clip0">
<rect width="600" height="287" fill="white" transform="translate(-0.000244141 72)"/>
</clipPath>
</defs>
</svg>
