<svg width="611" height="495" viewBox="0 0 611 495" fill="none" xmlns="http://www.w3.org/2000/svg">
<g clip-path="url(#clip0)">
<path opacity="0.1" d="M354.995 65.6743C315.824 64.3479 278.518 52.0324 242.895 38.5556C207.271 25.0787 171.986 10.1457 133.754 3.0064C109.164 -1.5861 81.0391 -2.2346 61.23 10.6056C42.1594 22.9859 35.9982 44.2977 32.6876 64.0944C30.194 78.9861 28.7294 94.6619 35.5563 108.599C40.3013 118.279 48.714 126.414 54.5362 135.688C74.7932 167.947 60.4735 207.73 38.528 239.229C28.2392 254.008 16.2859 268.116 8.33933 283.833C0.39271 299.55 -3.28101 317.584 3.67304 333.631C10.5605 349.549 26.9803 361.481 44.7679 369.882C80.8938 386.949 123.447 391.831 164.972 394.595C256.863 400.721 349.239 398.068 441.373 395.415C475.471 394.43 509.715 393.434 543.256 388.299C561.885 385.446 581.113 380.924 594.64 369.994C611.804 356.122 616.059 332.635 604.554 315.238C585.259 286.061 531.927 278.816 518.424 247.506C511.004 230.268 518.624 211.072 529.415 195.084C552.559 160.796 591.348 130.712 593.387 91.5197C594.791 64.6014 576.144 37.6418 547.311 24.9019C517.092 11.5547 475.181 13.229 452.896 35.3308C429.928 58.087 389.583 66.8416 354.995 65.6743Z" fill="#457B9D"/>
<path opacity="0.1" d="M292.621 484.665C394.225 484.665 476.591 473.812 476.591 460.424C476.591 447.035 394.225 436.182 292.621 436.182C191.017 436.182 108.65 447.035 108.65 460.424C108.65 473.812 191.017 484.665 292.621 484.665Z" fill="#457B9D"/>
<path d="M201.546 388.252C201.546 388.252 214.256 386.271 221.882 395.02C221.882 395.02 216.29 399.312 204.258 393.369L201.546 388.252Z" fill="#457B9D"/>
<path d="M200.191 388.058C200.191 388.058 192.081 397.832 196.057 408.603C196.057 408.603 202.666 406.027 203.386 392.904L200.191 388.058Z" fill="#457B9D"/>
<path d="M192.928 372.075C192.928 372.075 198.012 362.996 218.347 375.707C218.347 375.707 215.636 381.814 206.655 381.319C197.673 380.824 195.27 376.862 192.928 372.075Z" fill="#457B9D"/>
<path d="M191.59 371.421C191.59 371.421 181.041 370.242 180.019 393.764C180.019 393.764 186.706 395.12 191.457 387.674C196.208 380.229 194.241 376.066 191.59 371.421Z" fill="#457B9D"/>
<path d="M185.441 352.662C185.441 352.662 191.373 336.644 212.901 348.034C212.901 348.034 207.986 362.731 187.644 358.109L185.441 352.662Z" fill="#457B9D"/>
<path d="M178.832 328.721C178.832 328.721 190.017 312.544 209.85 327.542C209.85 327.542 202.902 342.728 180.527 334.475L178.832 328.721Z" fill="#457B9D"/>
<path d="M176.46 305.941C176.46 305.941 189.508 291.085 209.142 305.941C209.142 305.941 196.765 318.982 176.46 309.738V305.941Z" fill="#457B9D"/>
<path d="M174.426 283.822C174.426 283.822 187.644 268.299 206.461 282.996C206.461 282.996 191.542 296.697 174.426 287.453V283.822Z" fill="#457B9D"/>
<path d="M175.613 264.172C175.613 264.172 189.533 244.199 207.139 257.734C207.139 257.734 192.22 274.908 175.613 267.969V264.172Z" fill="#457B9D"/>
<path d="M178.832 241.227C178.832 241.227 193.576 221.419 210.697 236.605C210.697 236.605 193.237 253.773 178.832 244.859V241.227Z" fill="#457B9D"/>
<path d="M183.753 220.717C183.753 220.717 201.201 202.106 216.435 209.516C216.435 209.516 198.242 229.283 182.99 225.652L183.753 220.717Z" fill="#457B9D"/>
<path d="M189.847 201.28C189.847 201.28 210.02 178.495 221.712 186.088C221.712 186.088 206.872 203.774 188.425 205.572L189.847 201.28Z" fill="#457B9D"/>
<path d="M198.653 178.724C198.653 178.724 216.29 160.107 229.169 164.729C229.169 164.729 214.087 184.048 196.287 184.543L198.653 178.724Z" fill="#457B9D"/>
<path d="M206.63 157.631C206.63 157.631 226.119 139.803 234.592 142.94C234.592 142.94 220.526 162.748 205.783 161.592L206.63 157.631Z" fill="#457B9D"/>
<path d="M214.426 138.152C214.426 138.152 231.202 116.858 240.353 118.509C240.353 118.509 230.186 137.492 214.426 140.322V138.152Z" fill="#457B9D"/>
<path d="M222.881 111.906C222.881 111.906 237.715 95.5759 245.722 95.6172C245.722 95.6172 234.017 117.43 222.275 117.23L222.881 111.906Z" fill="#457B9D"/>
<path d="M227.898 94.4028L242.217 60.3982C242.217 60.3982 242.938 91.1367 226.07 100.711L227.898 94.4028Z" fill="#457B9D"/>
<path d="M233.708 56.9023C233.708 56.9023 236.081 28.5101 234.555 26.1991C234.555 26.1991 244.802 49.7806 233.611 69.4476L233.708 56.9023Z" fill="#457B9D"/>
<path d="M184.89 352.279C184.89 352.279 170.032 343.312 160.421 365.248C160.421 365.248 173.639 373.797 186.633 357.873L184.89 352.279Z" fill="#457B9D"/>
<path d="M178.36 327.807C178.36 327.807 160.143 319.713 151.301 342.616C151.301 342.616 165.378 352.049 180.019 333.596L178.36 327.807Z" fill="#457B9D"/>
<path d="M175.612 307.303C175.612 307.303 162.564 292.446 142.93 307.303C142.93 307.303 155.301 320.343 175.612 311.099V307.303Z" fill="#457B9D"/>
<path d="M173.984 283.822C173.984 283.822 160.76 268.299 141.95 282.996C141.95 282.996 156.862 296.697 173.984 287.453V283.822Z" fill="#457B9D"/>
<path d="M175.612 264.738C175.612 264.738 166.34 242.365 146.186 251.986C146.186 251.986 157.08 271.83 174.795 268.452L175.612 264.738Z" fill="#457B9D"/>
<path d="M180 241.115C180 241.115 170.789 218.353 150.344 228.906C150.344 228.906 162.86 249.77 179.092 244.635L180 241.115Z" fill="#457B9D"/>
<path d="M185.714 220.835C185.714 220.835 182.082 195.874 165.166 193.64C165.166 193.64 168.755 219.957 183.456 225.327L185.714 220.835Z" fill="#457B9D"/>
<path d="M190.283 201.321C190.283 201.321 188.861 171.255 174.85 170.212C174.85 170.212 175.322 193.027 188.703 205.584L190.283 201.321Z" fill="#457B9D"/>
<path d="M200.112 177.864C200.112 177.864 195.93 152.867 182.561 149.808C182.561 149.808 184.219 174.02 198.787 184.001L200.112 177.864Z" fill="#457B9D"/>
<path d="M208.216 157.814C208.216 157.814 208.071 131.768 199.9 127.942C199.9 127.942 194.834 151.523 205.849 161.139L208.216 157.814Z" fill="#457B9D"/>
<path d="M215.049 137.846C215.049 137.846 213.899 111.022 205.444 107.243C205.444 107.243 202.545 128.466 213.778 139.597L215.049 137.846Z" fill="#457B9D"/>
<path d="M224.067 114.029C224.067 114.029 224.012 92.2156 217.972 87.0984C217.972 87.0984 211.968 110.998 220.914 118.415L224.067 114.029Z" fill="#457B9D"/>
<path d="M227.184 93.3298L221.313 57.0201C221.313 57.0201 213.324 86.7742 227.462 99.8796L227.184 93.3298Z" fill="#457B9D"/>
<path d="M228.334 57.2442C228.334 57.2442 213.245 32.8432 213.56 30.1254C213.56 30.1254 215.158 55.7114 234.138 68.4454L228.334 57.2442Z" fill="#457B9D"/>
<path d="M230.101 50.04C230.101 50.04 215.866 15.3693 209.427 12.563C209.427 12.563 229.762 22.6324 231.287 49.0496L230.101 50.04Z" fill="#457B9D"/>
<path d="M222.197 117.418L221.222 117.129C233.236 78.9687 236.238 54.6384 229.665 48.5426L230.367 47.8234C237.327 54.2552 234.507 78.3025 222.197 117.418Z" fill="#444053"/>
<path d="M189.115 206.745L187.681 206.25C188.952 202.754 190.326 199.205 191.766 195.703C204.306 165.259 214.982 136.944 221.828 115.202L223.08 114.612C216.223 136.396 205.741 165.802 193.182 196.281C191.748 199.747 190.38 203.285 189.115 206.745Z" fill="#444053"/>
<path d="M219.431 416.815C219.237 416.603 199.761 395.25 186.192 358.781C178.235 337.438 173.802 315.001 173.058 292.305C172.126 263.93 178.239 232.249 188.71 203.473L189.847 204.77C166.346 269.36 175.685 324.712 188.068 358.05C201.504 394.183 220.75 415.312 220.944 415.518L219.431 416.815Z" fill="#444053"/>
<path d="M393.016 170.86H390.425C389.66 170.86 389.039 171.464 389.039 172.21V212.558C389.039 213.304 389.66 213.908 390.425 213.908H393.016C393.781 213.908 394.402 213.304 394.402 212.558V172.21C394.402 171.464 393.781 170.86 393.016 170.86Z" fill="#3A3768"/>
<path d="M212.465 137.133H212.229C211.463 137.133 210.843 137.737 210.843 138.483V149.955C210.843 150.701 211.463 151.305 212.229 151.305H212.465C213.23 151.305 213.851 150.701 213.851 149.955V138.483C213.851 137.737 213.23 137.133 212.465 137.133Z" fill="#3A3768"/>
<path d="M212.737 163.084H212.12C211.354 163.084 210.734 163.688 210.734 164.434V186.4C210.734 187.146 211.354 187.75 212.12 187.75H212.737C213.502 187.75 214.123 187.146 214.123 186.4V164.434C214.123 163.688 213.502 163.084 212.737 163.084Z" fill="#3A3768"/>
<path d="M212.628 196.381H212.174C211.409 196.381 210.788 196.986 210.788 197.731V219.91C210.788 220.655 211.409 221.26 212.174 221.26H212.628C213.393 221.26 214.014 220.655 214.014 219.91V197.731C214.014 196.986 213.393 196.381 212.628 196.381Z" fill="#3A3768"/>
<path d="M368.335 90.2996H236.141C223.109 90.2996 212.543 100.591 212.543 113.286V422.446C212.543 435.14 223.109 445.432 236.141 445.432H368.335C381.367 445.432 391.932 435.14 391.932 422.446V113.286C391.932 100.591 381.367 90.2996 368.335 90.2996Z" fill="#3A3768"/>
<path d="M366.628 99.5259H346.05V101.937C346.05 103.438 345.747 104.924 345.157 106.311C344.567 107.697 343.702 108.957 342.613 110.018C341.523 111.079 340.229 111.921 338.805 112.494C337.382 113.068 335.856 113.363 334.315 113.362H268.872C267.331 113.363 265.805 113.068 264.381 112.494C262.958 111.921 261.664 111.079 260.574 110.018C259.484 108.957 258.62 107.697 258.03 106.311C257.44 104.924 257.136 103.438 257.136 101.937V99.5259H237.872C234.093 99.5259 230.47 100.988 227.798 103.591C225.126 106.193 223.625 109.723 223.625 113.404V422.304C223.625 425.985 225.126 429.514 227.798 432.117C230.47 434.72 234.093 436.182 237.872 436.182H366.628C370.406 436.182 374.03 434.72 376.702 432.117C379.374 429.514 380.875 425.985 380.875 422.304V113.427C380.878 111.603 380.512 109.796 379.797 108.109C379.083 106.423 378.034 104.89 376.711 103.599C375.387 102.308 373.816 101.283 372.086 100.585C370.355 99.8856 368.501 99.5259 366.628 99.5259Z" fill="#457B9D"/>
<path d="M307.642 100.905H287.277C285.983 100.905 284.934 101.927 284.934 103.187V103.576C284.934 104.836 285.983 105.858 287.277 105.858H307.642C308.936 105.858 309.985 104.836 309.985 103.576V103.187C309.985 101.927 308.936 100.905 307.642 100.905Z" fill="#E6E8EC"/>
<path d="M316.66 106.194C318.255 106.194 319.547 104.935 319.547 103.381C319.547 101.828 318.255 100.569 316.66 100.569C315.066 100.569 313.773 101.828 313.773 103.381C313.773 104.935 315.066 106.194 316.66 106.194Z" fill="#E6E8EC"/>
<path d="M454.041 74.724C454.041 74.724 403.081 71.7291 409.084 106.512C409.084 106.512 407.874 112.661 413.612 115.449C413.612 115.449 413.702 112.873 418.841 113.751C420.67 114.047 422.529 114.134 424.379 114.011C426.874 113.851 429.249 112.905 431.145 111.317C431.145 111.317 445.471 105.551 451.039 82.7476C451.039 82.7476 455.16 77.7719 454.997 76.4926L446.397 80.0711C446.397 80.0711 449.338 86.1139 447.002 91.1367C447.002 91.1367 446.723 80.2892 445.071 80.5251C444.738 80.5722 440.605 82.6179 440.605 82.6179C440.605 82.6179 445.658 93.1412 441.845 100.793C441.845 100.793 443.292 87.8235 439.025 83.3784L432.973 86.8213C432.973 86.8213 438.88 97.6924 434.873 106.565C434.873 106.565 435.902 92.9584 431.696 87.6585L426.212 91.8265C426.212 91.8265 431.762 102.538 428.379 109.896C428.379 109.896 427.937 94.0609 425.026 92.8641C425.026 92.8641 420.227 96.9909 419.494 98.6769C419.494 98.6769 423.295 106.459 420.935 110.562C420.935 110.562 419.488 100.009 418.302 99.9503C418.302 99.9503 413.521 106.942 413.024 111.741C413.024 111.741 413.23 104.614 417.146 99.2901C417.146 99.2901 412.522 100.062 409.823 102.981C409.823 102.981 410.567 98.0402 418.326 97.604C418.326 97.604 422.278 92.2981 423.331 91.9798C423.331 91.9798 415.621 91.349 410.942 93.3711C410.942 93.3711 415.058 88.7078 424.748 90.8302L430.164 86.5207C430.164 86.5207 420.009 85.1706 415.7 86.6621C415.7 86.6621 420.656 82.5354 431.623 85.542L437.518 82.1109C437.518 82.1109 428.857 80.2951 423.701 80.9318C423.701 80.9318 429.148 78.0726 439.249 81.1735L443.486 79.3283C443.486 79.3283 437.143 78.1138 435.285 77.9193C433.427 77.7248 433.33 77.2295 433.33 77.2295C437.348 76.5768 441.474 77.0238 445.247 78.5206C445.247 78.5206 454.192 75.2723 454.041 74.724Z" fill="#457B9D"/>
<path d="M401.767 59.2545C401.767 59.2545 378.769 57.9044 381.456 73.6215C381.456 73.6215 380.917 76.3983 383.502 77.6599C383.502 77.6599 383.544 76.4808 385.868 76.8876C386.694 77.0229 387.533 77.0625 388.368 77.0055C389.497 76.9328 390.57 76.5021 391.424 75.7792C391.424 75.7792 397.9 73.1735 400.418 62.8684C400.418 62.8684 402.276 60.6222 402.203 60.0445L398.318 61.6598C398.318 61.6598 399.643 64.3894 398.602 66.6591C398.602 66.6591 398.475 61.76 397.731 61.872C397.579 61.872 395.709 62.8212 395.709 62.8212C395.709 62.8212 397.997 67.5788 396.272 71.0335C396.272 71.0335 396.926 65.1734 394.995 63.1631L392.259 64.7431C392.259 64.7431 394.928 69.6539 393.119 73.6628C393.119 73.6628 393.585 67.5139 391.684 65.1204L389.209 67.0069C389.209 67.0069 391.715 71.847 390.189 75.172C390.189 75.172 389.984 68.015 388.67 67.4726C388.67 67.4726 386.504 69.3356 386.171 70.102C386.171 70.102 387.89 73.6392 386.824 75.4727C386.824 75.4727 386.171 70.7033 385.614 70.6797C385.614 70.6797 383.453 73.8397 383.229 75.9856C383.337 73.9847 383.98 72.0461 385.093 70.3614C383.847 70.5914 382.696 71.1713 381.783 72.0298C381.783 72.0298 382.122 69.7954 385.626 69.6009C385.626 69.6009 387.442 67.2015 387.89 67.0541C387.89 67.0541 384.403 66.7711 382.291 67.6849C382.291 67.6849 384.149 65.5802 388.525 66.5353L390.946 64.5898C390.946 64.5898 386.352 64.0003 384.409 64.6547C384.409 64.6547 386.649 62.7917 391.606 64.1477L394.269 62.5972C394.269 62.5972 390.353 61.7777 388.023 62.0725C388.023 62.0725 390.486 60.7814 395.049 62.1786L396.956 61.3473C396.956 61.3473 394.087 60.7991 393.246 60.7106C392.405 60.6222 392.362 60.3982 392.362 60.3982C394.179 60.1038 396.044 60.3079 397.749 60.9877C397.749 60.9877 401.84 59.5021 401.767 59.2545Z" fill="#457B9D"/>
<path opacity="0.1" d="M364.867 133.342H239.615V392.291H364.867V133.342Z" fill="black"/>
<path d="M361.029 464.58C361.029 464.58 358.076 457.883 356.757 454.793C356.012 453.025 354.753 452.73 353.791 452.771L353.845 452.182L354.081 449.393L354.13 448.804C356.412 448.338 358.366 447.972 358.366 447.972L356.944 376.45C356.944 376.45 356.339 375.695 354.874 371.144C354.148 368.874 350.638 366.086 347.357 363.863C346.843 363.515 346.341 363.185 345.844 362.867C347.039 361.892 348.294 360.99 349.603 360.167C351.467 359.111 352.084 353.092 352.084 353.092L351.776 353.682C352.084 353.092 351.776 337.723 351.776 337.723L350.686 321.77C350.686 321.77 349.911 302.805 343.859 297.835C337.807 292.865 330.163 291.126 330.163 291.126L325.926 290.065L318.119 288.113C317.901 287.765 317.689 287.4 317.514 287.017C317.435 286.869 317.362 286.716 317.29 286.563C319.675 284.918 321.621 282.74 322.963 280.211C324.306 277.683 325.007 274.877 325.006 272.031C325.008 271.075 324.929 270.121 324.77 269.177C324.77 269 324.704 268.818 324.667 268.641C325.309 268.213 325.916 267.738 326.483 267.22C327.408 266.502 328.163 265.6 328.698 264.573C328.782 264.372 328.851 264.165 328.904 263.954C328.904 263.895 328.904 263.836 328.94 263.771C328.977 263.706 328.995 263.459 329.013 263.3C329.013 263.241 329.013 263.182 329.013 263.123C329.013 262.952 329.013 262.775 329.013 262.604C329.013 262.563 329.013 262.521 329.013 262.474C329.013 262.28 328.983 262.085 328.952 261.885C328.955 261.873 328.955 261.861 328.952 261.849C328.842 261.165 328.659 260.493 328.408 259.845C327.803 258.324 327.016 256.897 326.731 255.276C326.38 253.36 326.786 251.267 325.848 249.546C325.458 248.895 324.926 248.336 324.289 247.909C323.651 247.482 322.925 247.197 322.162 247.075C320.625 246.845 319.054 247.02 317.611 247.582C316.905 247.909 316.144 248.109 315.365 248.172C314.799 248.14 314.243 248.008 313.725 247.783C311.928 247.096 310.221 246.204 308.641 245.124C307.504 244.25 306.288 243.477 305.01 242.813C304.367 242.487 303.659 242.302 302.935 242.274C302.211 242.245 301.489 242.373 300.822 242.648C298.582 243.756 298.159 246.846 296.077 248.207C294.642 249.151 292.772 249.056 291.041 249.115C289.31 249.174 287.349 249.593 286.496 251.055C285.891 252.069 286.036 253.277 286.151 254.462L286.187 254.863C286.187 255.005 286.187 255.152 286.223 255.294C286.319 256.81 286.086 258.328 285.54 259.751C284.704 261.908 283.119 264.036 283.173 266.235C283.178 266.585 283.225 266.934 283.312 267.273C283.36 267.443 283.416 267.61 283.482 267.774C283.815 268.503 284.189 269.213 284.601 269.902L284.656 269.997C284.698 270.079 284.741 270.162 284.777 270.244C284.813 270.327 284.886 270.468 284.928 270.58C284.971 270.692 284.977 270.692 284.995 270.745C285.013 270.798 285.074 270.964 285.104 271.076C285.204 271.408 285.247 271.755 285.231 272.101C285.16 272.548 285.121 272.999 285.116 273.451C285.118 273.678 285.2 273.897 285.347 274.071C285.495 274.246 285.699 274.367 285.927 274.412C286.177 274.406 286.42 274.333 286.629 274.2C287.172 273.899 287.688 273.554 288.172 273.168C288.172 273.357 288.172 273.546 288.209 273.758C288.63 277.978 290.58 281.913 293.71 284.859C293.71 285.042 293.71 285.23 293.668 285.449C293.625 285.667 293.638 285.873 293.625 286.091L286.847 288.166C286.847 288.166 286.883 288.284 286.956 288.485L286.242 288.762C282.725 290.147 278.809 291.869 276.619 293.431C275.65 294.115 274.767 294.675 273.974 295.141C271.095 296.857 268.888 299.461 267.704 302.539L267.613 302.763C267.008 304.113 264.042 313.298 264.042 313.298C264.042 313.298 261.869 318.416 261.554 321.729C261.554 321.729 257.984 332.712 258.916 339.94C258.916 339.94 256.12 350.327 257.209 351.978C257.209 351.978 256.095 356.447 260.986 360.945C260.628 361.157 260.241 361.387 259.836 361.64C256.047 363.963 250.582 367.73 249.65 370.637C248.203 375.159 247.58 375.943 247.58 375.943L246.115 447.353C246.115 447.353 248.07 447.719 250.352 448.179L250.4 448.768L250.636 451.551L250.691 452.141C249.728 452.099 248.469 452.424 247.725 454.169C246.4 457.252 243.488 463.943 243.488 463.943C243.488 463.943 236.97 469.838 240.922 475.309C241.096 475.559 241.3 475.789 241.528 475.993C244.366 478.505 250.418 476.895 254.721 475.256C256.908 474.347 258.794 472.866 260.168 470.976C260.342 470.755 260.561 470.571 260.811 470.436C261.06 470.301 261.336 470.218 261.621 470.192C262.608 470.037 263.538 469.642 264.326 469.043C264.801 468.705 265.184 468.261 265.443 467.747C265.703 467.234 265.83 466.667 265.815 466.095C265.812 466.065 265.812 466.036 265.815 466.006L265.434 457.617C265.434 457.617 264.968 451.757 263.485 452.135L263.104 452.223L263.001 451.634L262.801 450.496L262.698 449.906H263.521C263.521 449.906 263.727 443.28 266.215 438.068C268.702 432.857 270.336 390.758 270.336 390.758C270.336 390.758 301.124 391.247 302.153 388.435C302.758 388.435 303.418 388.435 304.047 388.394C305.082 391.206 334.139 391.341 334.139 391.341C334.139 391.341 335.792 433.488 338.273 438.705C338.797 439.822 339.232 440.977 339.574 442.16C340.355 444.893 340.824 447.703 340.972 450.537H341.795L341.686 451.127L341.487 452.258L341.384 452.848L340.99 452.76C339.52 452.388 339.054 458.248 339.054 458.248L338.66 466.69C338.63 467.26 338.745 467.827 338.997 468.342C339.248 468.857 339.628 469.302 340.101 469.638C340.902 470.251 341.849 470.656 342.854 470.817C343.139 470.839 343.416 470.92 343.666 471.054C343.917 471.189 344.135 471.373 344.307 471.595C345.683 473.484 347.568 474.965 349.754 475.875C354.402 477.644 361.084 479.371 363.565 475.934C367.548 470.452 361.029 464.58 361.029 464.58ZM282.774 359.442H282.846H282.774ZM331.404 335.341C331.404 335.341 332.184 338.2 333.576 339.704C334.968 341.207 334.278 350.545 334.278 350.545C333.731 350.579 333.188 350.664 332.656 350.799C331.585 344.591 330.599 337.699 331.404 335.341Z" fill="url(#paint0_linear)"/>
<path d="M264.46 453.019L252.288 454.198L251.95 450.23L251.713 447.501L251.381 443.51L262.88 444.099L263.794 449.222L263.987 450.337H263.994L264.46 453.019Z" fill="#8E6F7F"/>
<path d="M353.095 444.105L352.762 448.09L352.532 450.82L352.187 454.788L340.01 453.608L340.494 450.926L340.682 449.818L341.596 444.695L353.095 444.105Z" fill="#8E6F7F"/>
<path d="M340.197 386.69L304.005 388.347C302.359 388.425 300.713 388.425 299.066 388.347L264.49 386.696V360.013H340.197V386.69Z" fill="#5F5570"/>
<path opacity="0.1" d="M340.197 386.69L304.005 388.347C302.359 388.425 300.713 388.425 299.066 388.347L264.49 386.696V360.013H340.197V386.69Z" fill="black"/>
<path d="M293.849 288.125C293.849 288.125 281.793 292.069 277.254 295.312C276.31 295.984 275.438 296.538 274.676 296.992C271.872 298.675 269.727 301.224 268.581 304.231C268.551 304.314 268.521 304.385 268.49 304.449C267.885 305.776 265.01 314.766 265.01 314.766C265.01 314.766 262.892 319.777 262.589 323.02C262.287 326.262 279.838 334.958 279.838 334.958C279.838 334.958 271.365 352.939 275.148 357.508C278.93 362.077 334.157 364.288 332.947 357.508C331.736 350.728 329.618 339.527 330.677 336.432L349.439 323.167C349.439 323.167 348.683 304.597 342.782 299.733C336.881 294.869 329.467 293.101 329.467 293.101L317.719 290.153C317.719 290.153 313.58 300.175 309.04 301.502C304.501 302.828 294.557 296.703 293.849 288.125Z" fill="#EAEAF2"/>
<path opacity="0.1" d="M310.784 305.004C310.784 305.004 305.663 309.166 302.976 305.004C302.976 305.004 300.555 312.043 302.976 314.401L302.885 314.878L302.456 316.977L296.851 362.372L301.463 370.124L309.858 359.866L309.18 317.419L308.877 314.984L308.805 314.395H310.239C310.239 314.395 314.046 307.987 310.784 305.004Z" fill="black"/>
<path opacity="0.1" d="M311.994 305.004C311.994 305.004 306.874 309.166 304.187 305.004C304.187 305.004 301.766 312.043 304.187 314.401L304.096 314.878L303.666 316.977L298.062 362.372L302.674 370.124L311.068 359.866L310.39 317.419L310.088 314.984L310.015 314.395H311.449C311.449 314.395 315.256 307.987 311.994 305.004Z" fill="black"/>
<path d="M310.463 359.282L302.068 369.523L297.444 361.811L303.055 316.393L303.484 314.295L303.581 313.811L304.338 311.901L309.41 313.811L309.482 314.401L309.785 316.836L310.463 359.282Z" fill="#BC8487"/>
<path opacity="0.1" d="M263.794 449.216C261.182 449.2 258.578 448.942 256.017 448.444C254.752 448.138 253.166 447.796 251.72 447.495L251.381 443.504L262.88 444.093L263.794 449.216Z" fill="black"/>
<path d="M302.159 388.4C301.154 391.153 271.147 390.669 271.147 390.669C271.147 390.669 269.537 431.937 267.116 437.048C264.696 442.16 264.49 448.639 264.49 448.639C264.49 448.639 259.249 448.639 256.017 447.855C252.785 447.07 247.543 446.086 247.543 446.086L248.96 376.078C248.96 376.078 249.565 375.341 250.975 370.914C251.883 368.066 257.209 364.376 260.895 362.071C262.953 360.809 264.49 359.984 264.49 359.984L282.392 360.691L293.444 361.128C293.444 361.128 303.17 385.646 302.159 388.4Z" fill="#5F5570"/>
<path opacity="0.1" d="M264.466 453.013L252.289 454.192L251.944 450.225C252.4 450.237 252.849 450.333 253.269 450.508C255.49 452.064 261.839 450.826 263.988 450.331L264.466 453.013Z" fill="black"/>
<path d="M266.766 464.48C266.78 465.039 266.655 465.594 266.401 466.096C266.147 466.598 265.771 467.033 265.307 467.362C264.541 467.948 263.635 468.335 262.674 468.488C262.397 468.512 262.128 468.592 261.885 468.724C261.642 468.856 261.43 469.037 261.264 469.255C259.919 471.103 258.076 472.554 255.938 473.447C251.744 475.05 245.843 476.624 243.077 474.166C242.849 473.968 242.645 473.744 242.472 473.5C238.616 468.123 244.971 462.369 244.971 462.369C244.971 462.369 247.84 455.813 249.129 452.795C249.268 452.403 249.491 452.045 249.782 451.743C250.073 451.44 250.426 451.201 250.819 451.041C251.211 450.881 251.634 450.803 252.059 450.813C252.484 450.822 252.903 450.919 253.287 451.097C255.708 452.795 263.049 451.168 264.484 450.808C265.918 450.449 266.378 456.179 266.378 456.179L266.766 464.391C266.763 464.421 266.763 464.45 266.766 464.48Z" fill="#BC8487"/>
<path opacity="0.1" d="M353.101 444.099L352.762 448.085C351.316 448.385 349.736 448.727 348.459 449.034C345.9 449.532 343.298 449.793 340.688 449.812L341.602 444.689L353.101 444.099Z" fill="black"/>
<path d="M356.944 446.676C356.944 446.676 351.703 447.66 348.471 448.444C345.239 449.228 339.998 449.228 339.998 449.228C339.998 449.228 339.798 442.743 337.377 437.638C334.956 432.533 333.34 391.259 333.34 391.259C333.34 391.259 305.028 391.1 304.017 388.347C303.007 385.593 316.358 361.817 316.358 361.817L324.498 361.405L339.998 360.603C339.998 360.603 343.024 362.206 346.195 364.37C349.367 366.534 352.811 369.281 353.519 371.504C354.929 375.931 355.534 376.668 355.534 376.668L356.944 446.676Z" fill="#5F5570"/>
<path opacity="0.1" d="M352.532 450.814L352.193 454.782L340.01 453.603L340.494 450.92C342.643 451.421 348.967 452.653 351.207 451.097C351.626 450.922 352.076 450.826 352.532 450.814Z" fill="black"/>
<path d="M351.207 451.687C351.591 451.508 352.01 451.41 352.436 451.4C352.862 451.39 353.286 451.467 353.679 451.628C354.072 451.788 354.426 452.027 354.717 452.33C355.009 452.633 355.231 452.992 355.371 453.384C356.654 456.403 359.528 462.965 359.528 462.965C359.528 462.965 365.883 468.713 362.028 474.089C359.607 477.461 353.095 475.769 348.568 474.036C346.428 473.147 344.584 471.695 343.242 469.844C343.075 469.626 342.862 469.445 342.618 469.313C342.374 469.181 342.104 469.101 341.826 469.078C340.842 468.911 339.918 468.506 339.138 467.899C338.68 467.569 338.313 467.133 338.069 466.631C337.825 466.129 337.712 465.577 337.74 465.022L338.122 456.768C338.122 456.768 338.576 451.032 340.01 451.392C341.444 451.751 348.786 453.384 351.207 451.687Z" fill="#BC8487"/>
<path d="M319.922 293.101L307.703 305.717L307.364 306.071L306.922 305.817C304.368 304.343 291.592 296.833 292.687 294.575C293.293 293.289 293.65 290.613 293.837 288.308C293.837 288.031 293.874 287.76 293.898 287.494C294.019 285.673 294.049 284.258 294.049 284.258C294.049 284.258 317.048 280.426 316.14 284.258C315.771 285.808 316.321 287.553 317.102 289.08C317.332 289.522 317.586 289.941 317.834 290.336C318.445 291.316 319.144 292.241 319.922 293.101Z" fill="#FFC4D0"/>
<path opacity="0.1" d="M317.102 289.08C313.671 291.543 309.452 292.736 305.2 292.445C300.949 292.155 296.942 290.4 293.898 287.494C294.019 285.673 294.049 284.258 294.049 284.258C294.049 284.258 317.048 280.426 316.14 284.258C315.789 285.82 316.321 287.553 317.102 289.08Z" fill="black"/>
<path d="M324.407 274.407C324.474 278.944 322.727 283.33 319.536 286.636C316.345 289.943 311.96 291.912 307.306 292.128C302.652 292.343 298.095 290.789 294.596 287.793C291.097 284.796 288.93 280.592 288.554 276.069C288.505 275.519 288.481 274.965 288.481 274.407C288.437 272.083 288.869 269.774 289.752 267.615C290.634 265.456 291.95 263.489 293.622 261.831C295.293 260.173 297.287 258.855 299.487 257.956C301.687 257.057 304.049 256.594 306.435 256.594C308.821 256.594 311.183 257.057 313.383 257.956C315.583 258.855 317.577 260.173 319.249 261.831C320.92 263.489 322.236 265.456 323.118 267.615C324.001 269.774 324.433 272.083 324.389 274.407H324.407Z" fill="#FFC4D0"/>
<path opacity="0.1" d="M324.183 271.612C323.716 271.983 323.174 272.254 322.592 272.407C322.01 272.561 321.402 272.593 320.806 272.502C318.034 271.913 317.084 267.786 314.252 267.503C311.419 267.22 309.537 271.04 306.668 270.964C305.458 270.934 304.368 270.162 303.255 269.625C301.306 268.688 298.098 268.116 295.992 268.824C292.827 269.879 291.755 272.732 289.734 275.002C289.389 275.388 289.01 275.745 288.602 276.069C288.554 275.519 288.53 274.965 288.53 274.407C288.488 269.983 290.17 265.708 293.235 262.443C296.3 259.179 300.521 257.167 305.048 256.812C309.575 256.458 314.072 257.788 317.632 260.534C321.193 263.28 323.554 267.239 324.238 271.612H324.183Z" fill="black"/>
<path d="M303.254 269.042C304.368 269.572 305.433 270.351 306.668 270.38C309.531 270.451 311.401 266.613 314.245 266.913C317.09 267.214 318.028 271.306 320.812 271.913C322.682 272.325 324.443 270.964 325.842 269.696C326.745 268.995 327.482 268.112 328.002 267.108C328.607 265.646 328.293 263.96 327.73 262.474C327.167 260.989 326.374 259.562 326.096 258C325.757 256.125 326.15 254.073 325.236 252.387C324.858 251.75 324.339 251.203 323.718 250.785C323.096 250.367 322.387 250.089 321.641 249.97C320.144 249.744 318.612 249.913 317.205 250.459C316.519 250.784 315.779 250.983 315.02 251.049C314.466 251.016 313.923 250.886 313.416 250.666C311.666 249.994 310.004 249.121 308.466 248.066C307.362 247.208 306.181 246.451 304.937 245.802C304.312 245.482 303.621 245.302 302.916 245.275C302.21 245.247 301.507 245.373 300.858 245.643C298.679 246.728 298.261 249.77 296.234 251.084C294.836 252.004 293.014 251.91 291.332 251.975C289.649 252.039 287.7 252.434 286.901 253.867C286.187 255.099 286.544 256.614 286.635 258.023C286.725 259.507 286.497 260.993 285.963 262.386C285.025 264.827 283.119 267.232 283.797 269.755C284.238 271.412 285.763 272.785 285.673 274.471C285.601 274.906 285.563 275.346 285.558 275.786C285.56 276.008 285.639 276.222 285.784 276.394C285.928 276.565 286.128 276.684 286.351 276.729C286.593 276.726 286.829 276.652 287.028 276.517C288.035 275.969 288.937 275.257 289.697 274.412C291.743 272.137 292.802 269.289 295.968 268.234C298.104 267.544 301.306 268.098 303.254 269.042Z" fill="#8E6F7F"/>
<path d="M324.08 371.952L320.812 372.818L313.265 374.84C311.518 376.108 309.552 377.06 307.461 377.652C302.843 378.79 299.859 376.314 297.378 372.482C296.379 370.949 296.881 369.723 298.189 368.762C301.336 366.445 309.119 365.691 311.504 365.997C313.07 366.121 314.644 365.883 316.097 365.302C317.129 364.936 318.124 364.478 319.069 363.934L324.08 371.952Z" fill="#FFC4D0"/>
<path opacity="0.1" d="M324.08 371.951L320.812 372.818C319.874 370.065 318.331 366.61 316.122 365.284C317.153 364.918 318.148 364.46 319.093 363.916L324.08 371.951Z" fill="black"/>
<path opacity="0.1" d="M346.183 364.37C344.828 365.437 343.678 366.41 343.678 366.41C343.678 366.41 327.942 371.215 324.916 377.257C324.916 377.257 322.495 365.467 317.35 365.319C317.35 365.319 322.888 363.203 324.486 361.393L339.998 360.603C339.998 360.603 343.024 362.206 346.183 364.37Z" fill="black"/>
<path d="M345.947 318.156L349.427 323.167L350.486 338.79C350.486 338.79 350.789 353.823 350.486 354.413L350.789 353.823C350.789 353.823 350.184 359.719 348.368 360.75C346.553 361.782 342.467 365.231 342.467 365.231C342.467 365.231 326.731 370.035 323.705 376.078C323.705 376.078 321.284 364.287 316.14 364.14C316.14 364.14 323.857 361.192 323.705 359.276C323.705 359.276 329.606 354.118 330.06 352.791C330.514 351.465 333.461 351.318 333.461 351.318C333.461 351.318 334.145 342.18 332.784 340.706C331.422 339.232 330.665 336.432 330.665 336.432L345.947 318.156Z" fill="#EAEAF2"/>
<path opacity="0.1" d="M307.461 377.635C302.843 378.772 299.859 376.296 297.378 372.464C296.379 370.932 296.881 369.705 298.189 368.744L298.661 368.927C298.661 368.927 306.983 372.441 307.461 377.635Z" fill="black"/>
<path d="M305.549 382.345C300.101 389.714 289.964 379.468 289.207 377.405C288.935 376.656 287.9 375.99 286.708 375.453C285.195 374.81 283.625 374.302 282.017 373.938L291.023 366.793L292.748 367.465L298.056 369.534C298.056 369.534 310.996 374.976 305.549 382.345Z" fill="#FFC4D0"/>
<path opacity="0.1" d="M292.748 367.465C287.785 369.764 286.726 373.072 286.696 375.453C285.183 374.81 283.613 374.302 282.005 373.938L291.011 366.793L292.748 367.465Z" fill="black"/>
<path opacity="0.1" d="M284.82 380.205C284.82 380.205 270.294 369.004 263.334 364.14C262.463 363.536 261.652 362.853 260.913 362.1C262.971 360.839 264.508 360.013 264.508 360.013L282.411 360.721C282.889 361.529 283.173 362.077 283.173 362.077L292.857 368.267C281.188 371.952 284.82 380.205 284.82 380.205Z" fill="black"/>
<path d="M265.452 321.399L262.577 323.02C262.577 323.02 259.097 333.779 260.005 340.853C260.005 340.853 257.282 351.023 258.341 352.644C258.341 352.644 256.979 358.097 263.939 362.961C270.899 367.825 285.425 379.026 285.425 379.026C285.425 379.026 281.793 370.772 293.444 367.088L283.76 360.898C283.76 360.898 280.51 354.613 277.405 353.234C277.405 353.234 274.985 350.876 276.498 349.254C278.011 347.633 279.221 345.864 279.221 344.243C279.221 342.622 279.826 334.958 279.826 334.958L281.642 326.704L265.452 321.399Z" fill="#EAEAF2"/>
<path opacity="0.1" d="M309.482 314.395H303.581C303.546 314.363 303.513 314.327 303.485 314.289L303.581 313.805L304.338 311.895L309.41 313.805L309.482 314.395Z" fill="black"/>
<path d="M311.389 304.414C311.389 304.414 306.269 308.576 303.581 304.414C303.581 304.414 301.16 311.453 303.581 313.811H310.844C310.844 313.811 314.651 307.397 311.389 304.414Z" fill="#BC8487"/>
<path opacity="0.1" d="M318.313 290.743L325.938 292.659C325.938 292.659 318.712 310.934 317.12 310.934L307.969 306.66L318.313 290.743Z" fill="black"/>
<path opacity="0.1" d="M319.923 293.101L307.703 305.717L307.364 306.071L306.922 305.817L317.605 289.947L317.865 290.365C318.468 291.334 319.156 292.249 319.923 293.101Z" fill="black"/>
<path d="M317.707 290.153L325.333 292.069C325.333 292.069 318.107 310.345 316.515 310.345L307.364 306.071L317.707 290.153Z" fill="#EAEAF2"/>
<path opacity="0.1" d="M293.244 288.715L286.635 290.743C286.635 290.743 293.141 309.903 294.957 310.934L306.759 306.66L293.244 288.715Z" fill="black"/>
<path opacity="0.1" d="M307.703 305.717L307.364 306.071C307.364 306.071 291.477 297.08 292.687 294.575C293.293 293.289 293.65 290.613 293.837 288.308V287.948L307.703 305.717Z" fill="black"/>
<path d="M293.849 288.125L287.24 290.153C287.24 290.153 293.746 309.313 295.562 310.345L307.364 306.071L293.849 288.125Z" fill="#EAEAF2"/>
<path opacity="0.1" d="M278.107 319.424C278.107 319.424 282.09 320.113 282.017 324.14C281.945 328.167 283.657 318.934 283.657 318.934L278.107 319.424Z" fill="black"/>
<path opacity="0.1" d="M279.015 331.804C279.015 331.804 277.908 337.894 279.015 343.4C280.123 348.906 280.026 350.769 280.885 351.064C281.745 351.359 279.015 331.804 279.015 331.804Z" fill="black"/>
<path opacity="0.1" d="M329.854 331.214C329.536 331.254 329.231 331.36 328.961 331.527C328.69 331.693 328.46 331.916 328.287 332.178C328.113 332.441 328.002 332.737 327.959 333.046C327.916 333.355 327.943 333.67 328.038 333.968C328.547 336.432 329.854 331.214 329.854 331.214Z" fill="black"/>
<path opacity="0.1" d="M260.659 351.848C260.659 351.848 273.629 350.769 275.789 353.027C277.95 355.285 260.659 351.848 260.659 351.848Z" fill="black"/>
<path opacity="0.1" d="M335.906 352.703C335.906 352.703 345.39 351.565 347.612 353.139L335.906 352.703Z" fill="black"/>
<path opacity="0.1" d="M339.744 354.206C339.744 354.206 345.39 354.401 346.704 355.091L339.744 354.206Z" fill="black"/>
<path opacity="0.1" d="M340.851 356.181C340.851 356.181 345.996 355.987 346.704 356.771L340.851 356.181Z" fill="black"/>
<path opacity="0.1" d="M268.303 383.89C268.303 383.89 272.709 386.124 272.261 388.406C271.813 390.687 268.303 383.89 268.303 383.89Z" fill="black"/>
<path opacity="0.1" d="M264.49 384.974C264.49 384.974 271.214 393.47 270.3 396.27C269.386 399.07 264.49 384.974 264.49 384.974Z" fill="black"/>
<path opacity="0.1" d="M336.566 386.383C336.566 386.383 333.237 389.054 333.328 391.259L336.566 386.383Z" fill="black"/>
<path opacity="0.1" d="M259.703 439.012C259.703 439.012 259.703 441.517 264.466 445.202L259.703 439.012Z" fill="black"/>
<path opacity="0.1" d="M343.775 433.116C343.775 433.116 343.266 438.328 338.63 441.028L343.775 433.116Z" fill="black"/>
<g opacity="0.1">
<path opacity="0.1" d="M286.636 256.231C286.636 255.824 286.563 255.406 286.526 254.993C286.449 255.893 286.477 256.799 286.611 257.693C286.653 257.207 286.661 256.718 286.636 256.231Z" fill="black"/>
<path opacity="0.1" d="M285.673 272.703C285.764 270.993 284.238 269.619 283.797 267.986C283.774 267.907 283.758 267.826 283.748 267.745C283.61 268.41 283.627 269.097 283.797 269.755C284.154 271.105 285.231 272.261 285.57 273.569C285.6 273.263 285.661 272.986 285.673 272.703Z" fill="black"/>
<path opacity="0.1" d="M328.002 265.339C327.48 266.343 326.744 267.225 325.842 267.927C324.431 269.195 322.682 270.557 320.812 270.144C318.034 269.555 317.078 265.428 314.245 265.145C311.413 264.862 309.531 268.682 306.668 268.605C305.458 268.576 304.368 267.804 303.255 267.267C301.306 266.33 298.104 265.758 295.992 266.465C292.827 267.521 291.755 270.374 289.722 272.644C288.963 273.489 288.062 274.202 287.059 274.754C286.856 274.885 286.618 274.956 286.375 274.961C286.223 274.941 286.08 274.881 285.96 274.787C285.841 274.694 285.75 274.57 285.697 274.43V274.471C285.626 274.908 285.587 275.35 285.582 275.792C285.585 276.013 285.666 276.226 285.81 276.396C285.954 276.566 286.153 276.684 286.375 276.729C286.618 276.725 286.856 276.654 287.059 276.523C288.062 275.971 288.963 275.257 289.722 274.412C291.767 272.143 292.827 269.289 295.992 268.234C298.128 267.527 301.33 268.098 303.255 269.036C304.368 269.572 305.433 270.345 306.668 270.374C309.531 270.445 311.401 266.607 314.245 266.913C317.09 267.22 318.034 271.3 320.812 271.913C322.682 272.325 324.444 270.964 325.842 269.696C326.744 268.994 327.48 268.111 328.002 267.108C328.339 266.256 328.43 265.33 328.263 264.432C328.211 264.743 328.124 265.047 328.002 265.339Z" fill="black"/>
</g>
<path opacity="0.1" d="M244.977 462.375C244.977 462.375 249.922 460.889 251.974 463.707L244.977 462.375Z" fill="black"/>
<path opacity="0.1" d="M359.528 462.964C359.528 462.964 351.34 462.499 351.661 464.656L359.528 462.964Z" fill="black"/>
<path opacity="0.1" d="M523.018 458.596C532.02 458.596 539.317 457.395 539.317 455.914C539.317 454.432 532.02 453.231 523.018 453.231C514.017 453.231 506.719 454.432 506.719 455.914C506.719 457.395 514.017 458.596 523.018 458.596Z" fill="#457B9D"/>
<path opacity="0.1" d="M55.13 480.609C64.1316 480.609 71.4288 479.408 71.4288 477.927C71.4288 476.446 64.1316 475.245 55.13 475.245C46.1285 475.245 38.8313 476.446 38.8313 477.927C38.8313 479.408 46.1285 480.609 55.13 480.609Z" fill="#457B9D"/>
<path opacity="0.1" d="M118.176 495C127.178 495 134.475 493.799 134.475 492.318C134.475 490.836 127.178 489.635 118.176 489.635C109.175 489.635 101.878 490.836 101.878 492.318C101.878 493.799 109.175 495 118.176 495Z" fill="#457B9D"/>
<path d="M487.34 488.668C500.781 488.668 511.676 486.874 511.676 484.659C511.676 482.445 500.781 480.651 487.34 480.651C473.9 480.651 463.004 482.445 463.004 484.659C463.004 486.874 473.9 488.668 487.34 488.668Z" fill="#457B9D"/>
<path d="M497.405 478.104C498.514 477.22 499.322 476.03 499.723 474.69C500.026 473.34 499.433 471.743 498.101 471.218C496.612 470.664 495.021 471.672 493.816 472.686C492.612 473.7 491.226 474.861 489.646 474.643C490.459 473.927 491.068 473.018 491.412 472.004C491.757 470.991 491.826 469.907 491.613 468.86C491.542 468.426 491.352 468.018 491.062 467.681C490.239 466.82 488.738 467.186 487.752 467.869C484.605 470.021 483.727 474.189 483.709 477.933C483.388 476.583 483.66 475.174 483.648 473.806C483.636 472.438 483.255 470.858 482.051 470.133C481.308 469.745 480.473 469.554 479.63 469.579C478.213 469.526 476.64 469.668 475.671 470.676C474.461 471.925 474.788 474.024 475.829 475.392C476.87 476.76 478.462 477.638 479.926 478.587C481.098 479.268 482.097 480.197 482.85 481.305C482.94 481.46 483.013 481.624 483.067 481.794H491.91C493.904 480.81 495.752 479.569 497.405 478.104Z" fill="#457B9D"/>
<path d="M119.018 426.395C119.018 426.395 122.346 430.634 117.486 437.007C112.626 443.38 108.62 448.798 110.224 452.789C110.224 452.789 117.559 440.91 123.539 440.745C129.518 440.58 125.584 433.541 119.018 426.395Z" fill="#457B9D"/>
<path opacity="0.1" d="M119.018 426.395C119.308 426.806 119.536 427.254 119.696 427.728C125.518 434.39 128.623 440.609 123.024 440.762C117.813 440.91 111.561 449.989 110.06 452.282C110.109 452.459 110.169 452.63 110.236 452.807C110.236 452.807 117.571 440.928 123.551 440.762C129.53 440.597 125.584 433.541 119.018 426.395Z" fill="black"/>
<path d="M125.197 431.796C125.197 433.287 125.028 434.496 124.816 434.496C124.604 434.496 124.435 433.287 124.435 431.796C124.435 430.304 124.646 431.006 124.858 431.006C125.07 431.006 125.197 430.304 125.197 431.796Z" fill="#FFD037"/>
<path d="M127.322 433.576C125.978 434.289 124.804 434.72 124.707 434.537C124.61 434.354 125.609 433.629 126.952 432.916C128.296 432.202 127.769 432.721 127.866 432.916C127.963 433.11 128.665 432.863 127.322 433.576Z" fill="#FFD037"/>
<path d="M101.46 426.395C101.46 426.395 98.1314 430.634 102.991 437.007C107.851 443.38 111.858 448.798 110.254 452.789C110.254 452.789 102.925 440.91 96.9391 440.745C90.9534 440.58 94.8814 433.541 101.46 426.395Z" fill="#457B9D"/>
<path opacity="0.1" d="M101.46 426.395C101.169 426.806 100.939 427.255 100.776 427.728C94.954 434.39 91.8552 440.609 97.4475 440.762C102.665 440.91 108.917 449.989 110.417 452.282C110.368 452.46 110.307 452.636 110.236 452.807C110.236 452.807 102.907 440.928 96.9209 440.762C90.9353 440.597 94.8813 433.541 101.46 426.395Z" fill="black"/>
<path d="M95.2747 431.796C95.2747 433.287 95.4502 434.496 95.662 434.496C95.8738 434.496 96.0433 433.287 96.0433 431.796C96.0433 430.304 95.8315 431.006 95.6196 431.006C95.4078 431.006 95.2747 430.304 95.2747 431.796Z" fill="#FFD037"/>
<path d="M93.1564 433.576C94.5 434.289 95.6681 434.72 95.771 434.537C95.8739 434.354 94.8632 433.629 93.5196 432.916C92.176 432.202 92.7086 432.721 92.6057 432.916C92.5028 433.11 91.8128 432.863 93.1564 433.576Z" fill="#FFD037"/>
<path d="M96.334 452.253C96.334 452.253 105.63 451.97 108.439 450.03C111.247 448.09 122.74 445.762 123.43 448.88C124.12 451.999 137.405 464.379 126.91 464.462C116.415 464.545 102.519 462.87 99.7233 461.214C96.9271 459.557 96.334 452.253 96.334 452.253Z" fill="#A8A8A8"/>
<path opacity="0.2" d="M127.092 463.377C116.597 463.46 102.701 461.785 99.9048 460.129C97.7805 458.861 96.9271 454.328 96.6427 452.241H96.334C96.334 452.241 96.9392 459.539 99.7172 461.202C102.495 462.864 116.409 464.533 126.904 464.45C129.93 464.45 130.977 463.377 130.923 461.821C130.499 462.776 129.343 463.359 127.092 463.377Z" fill="black"/>
</g>
<defs>
<linearGradient id="paint0_linear" x1="239.615" y1="360.078" x2="364.867" y2="360.078" gradientUnits="userSpaceOnUse">
<stop stop-color="#808080" stop-opacity="0.25"/>
<stop offset="0.54" stop-color="#808080" stop-opacity="0.12"/>
<stop offset="1" stop-color="#808080" stop-opacity="0.1"/>
</linearGradient>
<clipPath id="clip0">
<rect width="611" height="495" fill="white"/>
</clipPath>
</defs>
</svg>
